# xmcd
#
# Track frame offsets:
#	150
#	75149
#	101360
#	121200
#	168314
#	210779
#
# Disc length: 2982 seconds
#
# Revision: 0
# Processed by: cddbd v1.5.2PL0 Copyright (c) Steve Scherf et al.
# Submitted via: audiograbber 1.83.01
#
DISCID=330ba406
DTITLE=Grateful Dead - 93-09-17 Madison Square Garden, New York NY
DYEAR=1900
DGENRE=
TTITLE0=Space
TTITLE1=I Need A Miracle
TTITLE2=That Would Be Something
TTITLE3=Standing On The Moon
TTITLE4=Turn On Your Lovelight
TTITLE5=I Fought The Law
EXTD=
EXTT0=
EXTT1=
EXTT2=
EXTT3=
EXTT4=
EXTT5=
PLAYORDER=
